<svg width="22" height="23" viewBox="0 0 22 23" fill="none" xmlns="http://www.w3.org/2000/svg">
<path fill-rule="evenodd" clip-rule="evenodd" d="M11 1.71167C5.75329 1.71167 1.5 5.96496 1.5 11.2117C1.5 16.4584 5.75329 20.7117 11 20.7117C16.2467 20.7117 20.5 16.4584 20.5 11.2117C20.5 5.96496 16.2467 1.71167 11 1.71167ZM0 11.2117C0 5.13654 4.92487 0.21167 11 0.21167C17.0751 0.21167 22 5.13654 22 11.2117C22 17.2868 17.0751 22.2117 11 22.2117C4.92487 22.2117 0 17.2868 0 11.2117Z" fill="#CF0713"/>
<path d="M12.4812 6.02489L12.2027 13.1326H9.75986L9.4813 6.02489H12.4812ZM10.9813 16.5249C10.567 16.5249 10.2116 16.3886 9.91522 16.116C9.62237 15.84 9.47773 15.5052 9.4813 15.1114C9.47773 14.7278 9.62237 14.3996 9.91522 14.1271C10.2116 13.8545 10.567 13.7182 10.9813 13.7182C11.3741 13.7182 11.7205 13.8545 12.0205 14.1271C12.3241 14.3996 12.4777 14.7278 12.4812 15.1114C12.4777 15.3739 12.4044 15.6129 12.2616 15.8283C12.1223 16.0403 11.9402 16.2102 11.7152 16.3381C11.4902 16.4626 11.2455 16.5249 10.9813 16.5249Z" fill="#CF0713"/>
</svg>
