<svg width="50" height="50" viewBox="0 0 50 50" fill="none" xmlns="http://www.w3.org/2000/svg">
<path d="M50 25C50 29.9445 48.5338 34.778 45.7867 38.8893C43.0397 43.0005 39.1352 46.2048 34.5671 48.097C29.9989 49.9892 24.9723 50.4843 20.1227 49.5196C15.2732 48.555 10.8186 46.174 7.32233 42.6777C3.82602 39.1814 1.445 34.7268 0.480368 29.8773C-0.484263 25.0277 0.0108209 20.0011 1.90301 15.4329C3.7952 10.8648 6.99952 6.96029 11.1107 4.21326C15.222 1.46622 20.0555 -5.8963e-08 25 0L25 5C21.0444 5 17.1776 6.17298 13.8886 8.37061C10.5996 10.5682 8.03616 13.6918 6.52241 17.3463C5.00866 21.0009 4.61259 25.0222 5.38429 28.9018C6.156 32.7814 8.06081 36.3451 10.8579 39.1421C13.6549 41.9392 17.2186 43.844 21.0982 44.6157C24.9778 45.3874 28.9991 44.9913 32.6537 43.4776C36.3082 41.9638 39.4318 39.4004 41.6294 36.1114C43.827 32.8224 45 28.9556 45 25H50Z" fill="#E6E6E6"/>
</svg>
