<svg width="120" height="33" viewBox="0 0 120 33" fill="none" xmlns="http://www.w3.org/2000/svg">
<path d="M0 0.220947V32.7791L4.93151 31.7656V14.1563L10.7482 31.2589L16.4384 30.4988V0.220947H11.254V18.5903L4.80506 0.220947H0Z" fill="#CF0713"/>
<path d="M21.2434 30.1187V0.220947H35.2792V5.28836H26.4278V12.0027H33.1296V17.0701H26.4278V24.7979C27.5406 24.4939 32.7924 24.2489 35.2792 24.1645V28.8518C34.1665 28.8518 25.4584 29.6964 21.2434 30.1187Z" fill="#CF0713"/>
<path d="M38.5669 5.28836V0.220947H54.1201V5.28836H48.8093V28.4718H43.7513V5.28836H38.5669Z" fill="#CF0713"/>
<path d="M57.4078 28.3451V0.220947H71.4436V5.28836H62.4658V11.876H69.294V16.69H62.4658V28.3451H57.4078Z" fill="#CF0713"/>
<path d="M74.7313 28.3451V0.220947H79.7893V23.7844C81.0032 23.7844 86.1117 24.2067 88.5142 24.4179V29.2319C88.0084 29.0292 79.1149 28.5562 74.7313 28.3451Z" fill="#CF0713"/>
<path d="M92.687 29.612V0.220947H97.745V29.8653C96.6322 29.6626 93.9094 29.612 92.687 29.612Z" fill="#CF0713"/>
<path d="M107.987 15.4232L102.044 0.220947H107.482L110.769 9.08892L114.436 0.220947H120L113.298 15.4232L120 32.5257L114.183 31.6389L110.516 22.1375L106.723 30.8788L101.538 30.3721L107.987 15.4232Z" fill="#CF0713"/>
</svg>
