<svg width="28" height="27" viewBox="0 0 28 27" fill="none" xmlns="http://www.w3.org/2000/svg">
<path fill-rule="evenodd" clip-rule="evenodd" d="M16.2618 0.535404C16.8881 0.692989 17.2689 1.33173 17.1123 1.96207L16.3294 5.114C18.0428 5.35809 19.4206 6.03935 20.4836 7.07082C21.8107 8.35841 22.5388 10.0864 22.9158 11.8689C23.5423 14.8316 23.255 18.2227 22.8398 20.8102H26.0675C26.713 20.8102 27.2363 21.3369 27.2363 21.9867C27.2363 22.6364 26.713 23.1631 26.0675 23.1631H1.40516C0.759632 23.1631 0.236328 22.6364 0.236328 21.9867C0.236328 21.3369 0.759632 20.8102 1.40516 20.8102H4.67227C4.38028 18.1202 4.59052 14.6761 5.72995 11.6918C6.40983 9.91108 7.44289 8.2368 8.95642 7.00345C10.2869 5.91925 11.9404 5.21616 13.9354 5.05105L14.8444 1.3914C15.001 0.761063 15.6356 0.377819 16.2618 0.535404ZM7.02568 20.8102H20.4698C20.8982 18.2953 21.1987 15.0511 20.6293 12.3587C20.3103 10.8503 19.7388 9.61634 18.8612 8.7648C18.0086 7.93754 16.7601 7.36652 14.8573 7.36652C12.9544 7.36652 11.5221 7.94005 10.4274 8.83217C9.31582 9.73795 8.48866 11.0255 7.91203 12.5358C6.89007 15.2124 6.72557 18.407 7.02568 20.8102Z" fill="#E6E6E6"/>
<path d="M17.0994 24.2433H8.13125C8.13125 24.2433 9.25227 26.5 12.6153 26.5C15.9784 26.5 17.0994 24.2433 17.0994 24.2433Z" fill="#E6E6E6"/>
</svg>
