<svg width="38" height="43" viewBox="0 0 38 43" fill="none" xmlns="http://www.w3.org/2000/svg">
<path fill-rule="evenodd" clip-rule="evenodd" d="M16.399 4C9.79799 4 4.44678 9.35121 4.44678 15.9523C4.44678 22.5533 9.79799 27.9045 16.399 27.9045C23.0001 27.9045 28.3513 22.5533 28.3513 15.9523C28.3513 9.35121 23.0001 4 16.399 4ZM0.446777 15.9523C0.446777 7.14208 7.58885 0 16.399 0C25.2092 0 32.3513 7.14208 32.3513 15.9523C32.3513 24.7625 25.2092 31.9045 16.399 31.9045C7.58885 31.9045 0.446777 24.7625 0.446777 15.9523Z" fill="#E6E6E6"/>
<path d="M22.5372 28.8509C22.2754 28.5389 22.3161 28.0738 22.6281 27.812L25.4751 25.423C25.7871 25.1613 26.2523 25.2019 26.5141 25.5139L37.581 38.703C37.8428 39.015 37.8021 39.4802 37.4901 39.7419L34.6431 42.1309C34.3311 42.3927 33.8659 42.352 33.6042 42.04L22.5372 28.8509Z" fill="#E6E6E6"/>
</svg>
