<svg width="54" height="54" viewBox="0 0 54 54" fill="none" xmlns="http://www.w3.org/2000/svg">
<path d="M40.053 27C40.053 34.3551 34.209 40.3176 27 40.3176C19.791 40.3176 13.947 34.3551 13.947 27C13.947 19.6449 19.791 13.6824 27 13.6824C34.209 13.6824 40.053 19.6449 40.053 27Z" fill="#FFD500"/>
<path d="M25.2119 1.82432C25.2119 0.816778 26.0125 0 27 0C27.9875 0 28.7881 0.816778 28.7881 1.82432V8.93919C28.7881 9.94674 27.9875 10.7635 27 10.7635C26.0125 10.7635 25.2119 9.94674 25.2119 8.93919V1.82432Z" fill="#FFD500"/>
<path d="M25.2119 44.8784C25.2119 43.8708 26.0125 43.0541 27 43.0541C27.9875 43.0541 28.7881 43.8708 28.7881 44.8784V52.1757C28.7881 53.1832 27.9875 54 27 54C26.0125 54 25.2119 53.1832 25.2119 52.1757V44.8784Z" fill="#FFD500"/>
<path d="M39.0976 41.0419C38.539 40.472 38.539 39.5479 39.0976 38.9779C39.6562 38.408 40.5619 38.408 41.1206 38.9779L44.7872 42.7189C45.3458 43.2889 45.3458 44.213 44.7872 44.7829C44.2286 45.3529 43.3229 45.3529 42.7642 44.7829L39.0976 41.0419Z" fill="#FFD500"/>
<path d="M9.23666 10.9406C8.67803 10.3706 8.67803 9.44654 9.23666 8.87659C9.79529 8.30664 10.701 8.30664 11.2596 8.87659L14.9263 12.6176C15.4849 13.1875 15.4849 14.1116 14.9263 14.6816C14.3677 15.2515 13.4619 15.2515 12.9033 14.6816L9.23666 10.9406Z" fill="#FFD500"/>
<path d="M42.7642 9.60632C43.3229 9.03636 44.2286 9.03636 44.7872 9.60632C45.3459 10.1763 45.3459 11.1004 44.7872 11.6703L41.1206 15.4113C40.5619 15.9812 39.6562 15.9812 39.0976 15.4113C38.539 14.8413 38.539 13.9172 39.0976 13.3473L42.7642 9.60632Z" fill="#FFD500"/>
<path d="M12.9033 39.3428C13.4619 38.7729 14.3677 38.7729 14.9263 39.3428C15.4849 39.9128 15.4849 40.8368 14.9263 41.4068L11.2596 45.1478C10.701 45.7177 9.79529 45.7177 9.23666 45.1478C8.67803 44.5778 8.67803 43.6537 9.23666 43.0838L12.9033 39.3428Z" fill="#FFD500"/>
<path d="M45.0596 28.8243C44.0721 28.8243 43.2715 28.0075 43.2715 27C43.2715 25.9925 44.0721 25.1757 45.0596 25.1757H52.2119C53.1994 25.1757 54 25.9925 54 27C54 28.0075 53.1994 28.8243 52.2119 28.8243H45.0596Z" fill="#FFD500"/>
<path d="M1.78808 28.8243C0.800551 28.8243 0 28.0075 0 27C0 25.9925 0.800551 25.1757 1.78808 25.1757H8.9404C9.92793 25.1757 10.7285 25.9925 10.7285 27C10.7285 28.0075 9.92793 28.8243 8.9404 28.8243H1.78808Z" fill="#FFD500"/>
</svg>
